<?xml version="1.0" encoding="UTF-8"?>
<svg version="1.1" xmlns="http://www.w3.org/2000/svg" width="256" height="256">
<path d="M0 0 C4.90239986 2.27611422 7.62337705 5.15873102 10 10 C10.60116146 13.66253833 10.86807649 17.29294942 11 21 C11.94359375 21.21914063 12.8871875 21.43828125 13.859375 21.6640625 C28.46585599 25.20572299 41.85775602 30.59349066 50.3125 43.75 C55.94476263 54.23990547 57.57305664 64.07001618 58 75.875 C59.77344551 112.25830903 69.65537444 148.99664459 94 177 C94.72058594 177.84175781 95.44117188 178.68351563 96.18359375 179.55078125 C99.9329301 183.83295223 103.66478392 187.58448739 108.125 191.125 C111.80625 194.34125 111.80625 194.34125 112.5859375 196.9921875 C112.36750684 202.09552193 109.44285431 205.5315042 106.1796875 209.23828125 C101.04911103 213.3850375 96.1664118 214.37522145 89.68774414 214.34057617 C88.99421844 214.34101425 88.30069275 214.34145233 87.58615112 214.34190369 C85.31885533 214.33983196 83.05232109 214.3165793 80.78515625 214.29296875 C79.20332747 214.287367 77.62149346 214.28309964 76.03965759 214.28010559 C71.89510493 214.26870229 67.75087233 214.2392746 63.60644531 214.20599365 C59.3698357 214.17519488 55.1331739 214.16157938 50.89648438 214.14648438 C42.59751008 214.11440003 34.29879496 214.06325906 26 214 C26.02199463 215.09183594 26.04398926 216.18367187 26.06665039 217.30859375 C25.93433027 224.6370926 21.65719144 231.61069124 16.75 236.9375 C9.65819181 243.38316567 1.02013367 246.41949867 -8.47265625 246.27734375 C-17.53125542 245.283278 -26.03437711 240.91949209 -31.75390625 233.82421875 C-36.3676296 227.20936238 -38.09535125 222.10485611 -38 214 C-38.87172852 214.00888245 -39.74345703 214.01776489 -40.64160156 214.0269165 C-48.88009575 214.10725738 -57.11845727 214.1680632 -65.35725403 214.20724869 C-69.59234407 214.22807209 -73.82710884 214.25629279 -78.06201172 214.30175781 C-82.15339326 214.34540424 -86.24446307 214.36917653 -90.33605957 214.37950897 C-91.89250593 214.3868668 -93.44893635 214.40123476 -95.00524902 214.42292023 C-104.41968627 214.54881376 -111.3827281 214.38083254 -119.05859375 208.39453125 C-122.32996346 204.64126005 -124.25519577 201.23706582 -124.4765625 196.1796875 C-123.68371981 192.553407 -121.37283432 191.09917875 -118.5078125 188.91796875 C-91.63350748 168.36456725 -76.91300261 131.49439565 -72 99 C-71.13084978 91.34010599 -70.66671562 83.65100993 -70.19287109 75.95849609 C-69.13333426 59.70600578 -67.0732144 46.52314126 -54.7109375 34.8359375 C-45.92213306 27.38637945 -33.8070593 21 -22 21 C-22.04640625 20.27554687 -22.0928125 19.55109375 -22.140625 18.8046875 C-22.36997852 12.66128965 -22.38005371 8.72584743 -18 4 C-12.72867143 -1.00776214 -6.89190982 -0.92775709 0 0 Z " fill="#F29C11" transform="translate(134,0)"/>
<path d="M0 0 C6.24601419 0 7.42788179 0.22303279 12 4 C16.64071374 9.14241252 16.76388632 14.3652056 17 21 C17.94359375 21.21914063 18.8871875 21.43828125 19.859375 21.6640625 C34.46585599 25.20572299 47.85775602 30.59349066 56.3125 43.75 C61.94476263 54.23990547 63.57305664 64.07001618 64 75.875 C65.77344551 112.25830903 75.65537444 148.99664459 100 177 C100.72058594 177.84175781 101.44117188 178.68351563 102.18359375 179.55078125 C105.9329301 183.83295223 109.66478392 187.58448739 114.125 191.125 C117.80625 194.34125 117.80625 194.34125 118.5859375 196.9921875 C118.36750684 202.09552193 115.44285431 205.5315042 112.1796875 209.23828125 C104.84204204 215.16888716 96.93293269 214.40941376 87.91015625 214.328125 C86.40498546 214.32505509 84.8998118 214.32318836 83.39463806 214.32244873 C80.22806993 214.31784912 77.0617565 214.30347305 73.89526367 214.28125 C69.94256052 214.2535767 65.99006132 214.24209784 62.03727055 214.2375679 C58.16154207 214.23225291 54.28585849 214.21782931 50.41015625 214.203125 C49.37469508 214.20030392 49.37469508 214.20030392 48.31831551 214.19742584 C32.1978358 214.14089632 16.12112949 213.5037853 0 213 C0 142.71 0 72.42 0 0 Z " fill="#F0C30F" transform="translate(128,0)"/>
<path d="M0 0 C21.12 0 42.24 0 64 0 C64 9.70483381 61.37154234 16.73401689 54.75 23.9375 C47.65819181 30.38316567 39.02013367 33.41949867 29.52734375 33.27734375 C20.46874458 32.283278 11.96562289 27.91949209 6.24609375 20.82421875 C1.22723241 13.62850188 0 9.01095586 0 0 Z " fill="#E67E21" transform="translate(96,213)"/>
<path d="M0 0 C9.9 0 19.8 0 30 0 C26.85260385 9.44218845 20.8089971 15.39873691 12 20 C7.97531183 21.47903735 4.30919272 22 0 22 C0 14.74 0 7.48 0 0 Z " fill="#F29B12" transform="translate(128,224)"/>
</svg>
